# xmcd
#
# Track frame offsets:
#	150
#	13882
#	26183
#	41353
#	52690
#	67265
#	79519
#	87313
#	98835
#	109646
#	123143
#	135607
#	148837
#	161589
#	176290
#	188862
#	199230
#	214153
#	227033
#
# Disc length: 3310 seconds
#
# Revision: 1
# Processed by: cddbd v1.5.2PL0 Copyright (c) Steve Scherf et al.
# Submitted via: audiograbber 1.81.03
#
DISCID=030cec13
DTITLE=Johnny Cash - The Definitive Collection: Johnny Cash (1985-1993)
DYEAR=1900
DGENRE=Country
TTITLE0=Highwayman
TTITLE1=Sixteen Tons
TTITLE2=The Night Hank Williams Came to Town
TTITLE3=Get Rhythm
TTITLE4=Long Black Veil
TTITLE5=Ring of Fire
TTITLE6=Guess Things Happen That Way
TTITLE7=I Walk the Line
TTITLE8=Cry, Cry, Cry
TTITLE9=As Long As I Live
TTITLE10=Ballad of a Teenage Queen
TTITLE11=Where Did We Go Right
TTITLE12=That Old Wheel
TTITLE13=Cat's In the Craddle
TTITLE14=Family Bible
TTITLE15=Hey Porter
TTITLE16=Goin' By the Book
TTITLE17=Wanted Man
TTITLE18=The Wanderer
EXTD=
EXTT0=
EXTT1=
EXTT2=
EXTT3=
EXTT4=
EXTT5=
EXTT6=
EXTT7=
EXTT8=
EXTT9=
EXTT10=
EXTT11=
EXTT12=
EXTT13=
EXTT14=
EXTT15=
EXTT16=
EXTT17=
EXTT18=
PLAYORDER=
